# xmcd CD database file
#
# Track frame offsets:
#	150
#	16063
#	28420
#	58007
#	78045
#	95591
#	125196
#	146292
#	168931
#	182878
#	229916
#	252709
#	267230
#	279014
#
# Disc length: 4158 seconds
#
# Revision: 0
# Processed by: cddbd v1.4PL0 Copyright (c) Steve Scherf et al.
# Submitted via: CDex 1.50
#
DISCID=c0103c0e
DTITLE=Oscar Benton - I Believe In Love
DYEAR=2001
DGENRE=Blues
TTITLE0=I Believe In Love
TTITLE1=Never Never Leave Me
TTITLE2=Somebody`s Love Will Do
TTITLE3=The Three Bells
TTITLE4=Baby Help Me
TTITLE5=Today Is Yesterday`s Tomorrow
TTITLE6=Loving C.M.B.H.
TTITLE7=Helpless
TTITLE8=The Long And Winding Road
TTITLE9=Draggin` Around
TTITLE10=Took Me A Long Time
TTITLE11=Wooly Booly Boogie
TTITLE12=Come Back
TTITLE13=I Don't Know
EXTD=YEAR: 2001
EXTT0=
EXTT1=
EXTT2=
EXTT3=
EXTT4=
EXTT5=
EXTT6=
EXTT7=
EXTT8=
EXTT9=
EXTT10=
EXTT11=
EXTT12=
EXTT13=
PLAYORDER=
